<svg width="95" height="62" viewBox="0 0 95 62" fill="none" xmlns="http://www.w3.org/2000/svg">
<path d="M14.491 39.1171L12.302 42.4006C11.9106 41.8059 11.3801 41.3157 10.7564 40.9725C10.1328 40.6292 9.43482 40.4431 8.72304 40.4305C7.96066 40.4104 7.21985 40.6848 6.65447 41.1966C6.37768 41.4362 6.15753 41.7343 6.0099 42.0693C5.86227 42.4043 5.79084 42.7679 5.80077 43.1339C5.80077 44.1627 6.62163 45.0711 8.27431 45.8263C9.84034 46.4816 11.355 47.2536 12.8055 48.1357C13.6173 48.766 14.2658 49.5822 14.6963 50.5155C15.1267 51.4488 15.3266 52.4719 15.279 53.4986C15.3617 55.652 14.6087 57.754 13.1776 59.3651C12.4264 60.1365 11.5197 60.7394 10.5177 61.1338C9.51576 61.5282 8.44139 61.705 7.36588 61.6525C4.30862 61.6525 1.85333 60.0984 0 56.99L3.00983 54.0349C3.31966 54.9829 3.87923 55.8298 4.62967 56.4866C5.37289 57.1528 6.33494 57.5228 7.33305 57.5263C7.7686 57.5405 8.20156 57.4541 8.59828 57.2738C8.99501 57.0934 9.34481 56.8241 9.62052 56.4866C10.1626 55.7997 10.442 54.9421 10.4086 54.0678C10.4306 53.5502 10.3206 53.0355 10.0889 52.5722C9.85726 52.1088 9.51151 51.712 9.08422 51.4191C8.19593 50.9001 7.26166 50.4641 6.29329 50.1167C4.86121 49.6223 3.55139 48.8274 2.45165 47.7854C1.43456 46.6448 0.900796 45.1534 0.963147 43.6264C0.937475 42.6865 1.09837 41.7509 1.43652 40.8735C1.77467 39.9962 2.28337 39.1946 2.93322 38.5151C3.57427 37.8353 4.35303 37.3 5.21747 36.9452C6.08191 36.5904 7.01212 36.4241 7.94596 36.4575C9.15571 36.4743 10.3514 36.7194 11.4702 37.1799C12.6134 37.5833 13.6475 38.2464 14.491 39.1171Z" fill="#AAB2B7"/>
<path d="M27.0228 41.1528V61.0177H22.3275V41.1528H17.5555V37.0923H31.8495V41.1528H27.0228Z" fill="#AAB2B7"/>
<path d="M45.7166 61.6525C44.1017 61.7087 42.4941 61.4094 41.0076 60.7758C39.5211 60.1423 38.1919 59.1899 37.114 57.986C34.9166 55.5434 33.7412 52.3503 33.8305 49.066C33.7435 45.7886 34.919 42.6031 37.114 40.1678C38.1797 38.9693 39.4958 38.0197 40.9691 37.3861C42.4425 36.7525 44.037 36.4504 45.64 36.5013C47.2527 36.4569 48.8555 36.7661 50.336 37.4071C51.8164 38.048 53.1387 39.0053 54.2098 40.2116C56.3992 42.6328 57.5746 45.8027 57.4933 49.066C57.5826 52.3503 56.4072 55.5434 54.2098 57.986C53.144 59.1755 51.8325 60.1194 50.3661 60.7525C48.8997 61.3855 47.3133 61.6926 45.7166 61.6525ZM45.7166 41.0543C44.7417 41.0435 43.7773 41.2558 42.897 41.6751C42.0168 42.0943 41.2442 42.7094 40.6382 43.4732C39.3503 44.959 38.6599 46.8702 38.701 48.8361C38.7242 50.8354 39.431 52.7666 40.7039 54.3086C41.2498 55.1395 41.9937 55.8217 42.8688 56.2938C43.7438 56.7659 44.7224 57.013 45.7166 57.013C46.7109 57.013 47.6895 56.7659 48.5645 56.2938C49.4395 55.8217 50.1835 55.1395 50.7294 54.3086C52.0023 52.7666 52.7091 50.8354 52.7323 48.8361C52.7733 46.8702 52.083 44.959 50.795 43.4732C50.1902 42.7081 49.4178 42.0922 48.5373 41.6728C47.6568 41.2535 46.6918 41.0419 45.7166 41.0543Z" fill="#AAB2B7"/>
<path d="M70.7585 50.9266L77.5224 61.0177H71.8529L66.0303 51.4191V61.0615H61.3349V37.0923H67.6501C72.9839 37.0923 75.6508 39.4929 75.6508 44.294C75.699 45.8004 75.2866 47.2856 74.4688 48.5516C74.0569 49.1905 73.5124 49.7333 72.8722 50.1431C72.232 50.5529 71.5111 50.8201 70.7585 50.9266ZM66.0303 40.9011V48.1357H66.6213C69.5399 48.1357 70.9992 46.9098 70.9992 44.4582C71.0558 43.9079 70.9685 43.3523 70.746 42.8458C70.5235 42.3393 70.1733 41.8993 69.7296 41.5687C68.792 41.0499 67.7226 40.8177 66.6541 40.9011H66.0303Z" fill="#AAB2B7"/>
<path d="M85.2385 37.0923V61.0177H80.5322V37.0923H85.2385Z" fill="#AAB2B7"/>
<path d="M94.7824 37.0923V61.0177H90.0871V37.0923H94.7824Z" fill="#AAB2B7"/>
<path d="M42.9148 27.4937C43.1555 26.5524 44.0092 21.4521 44.0092 21.4521C45.9378 21.4574 47.8399 21.0034 49.5583 20.1278C52.2507 18.694 52.7761 14.4365 53.2248 12.9261C51.5047 13.1013 49.8412 13.6384 48.3434 14.5021C53.3671 10.759 53.5094 12.751 54.0676 11.2844C56.5849 6.18405 58.8176 3.88563 65.1437 1.95934C71.4699 0.033047 74.8737 2.83493 75.5632 3.26178C75.7229 3.37587 75.9142 3.43721 76.1105 3.43721C76.3067 3.43721 76.4981 3.37587 76.6577 3.26178C76.3403 1.95934 68.0879 -2.8345 56.7709 2.37524C45.454 7.58499 42.3785 19.887 42.3785 19.887C42.3785 19.887 40.9666 19.4602 40.8243 19.887C40.682 20.3139 40.9337 20.5765 42.0282 21.1894C41.2667 24.103 40.8624 27.0983 40.8243 30.1095C41.6777 29.3752 42.3867 28.488 42.9148 27.4937Z" fill="#AAB2B7"/>
</svg>
